<?xml version="1.0" standalone="no"?>
<!DOCTYPE svg PUBLIC "-//W3C//DTD SVG 20010904//EN"
 "http://www.w3.org/TR/2001/REC-SVG-20010904/DTD/svg10.dtd">
<svg version="1.0" xmlns="http://www.w3.org/2000/svg"
 width="700.000000pt" height="700.000000pt" viewBox="0 0 700.000000 700.000000"
 preserveAspectRatio="xMidYMid meet">
<metadata>
Created by potrace 1.14, written by Peter Selinger 2001-2017
</metadata>
<g transform="translate(0.000000,700.000000) scale(0.100000,-0.100000)"
fill="#000000" stroke="none">
<path d="M1806 6992 c-3 -5 1 -9 9 -9 8 0 12 4 9 9 -3 4 -7 8 -9 8 -2 0 -6 -4
-9 -8z"/>
<path d="M1956 6991 c-3 -4 6 -8 20 -9 13 -1 24 0 24 2 0 7 -40 14 -44 7z"/>
<path d="M2015 6990 c-2 -3 5 -6 15 -7 11 -1 22 2 24 5 3 4 -4 8 -15 8 -11 0
-22 -3 -24 -6z"/>
<path d="M2070 6990 c0 -5 5 -10 11 -10 5 0 7 5 4 10 -3 6 -8 10 -11 10 -2 0
-4 -4 -4 -10z"/>
<path d="M2130 6990 c0 -5 5 -10 11 -10 5 0 7 5 4 10 -3 6 -8 10 -11 10 -2 0
-4 -4 -4 -10z"/>
<path d="M2169 6987 c5 -5 24 -7 42 -5 33 3 33 4 -8 8 -23 3 -39 2 -34 -3z"/>
<path d="M2250 6988 c0 -6 588 -12 935 -10 39 1 38 0 -10 -8 -27 -5 -75 -11
-106 -14 -242 -23 -605 -118 -884 -233 -725 -298 -1416 -947 -1779 -1671 -127
-254 -248 -598 -282 -802 -3 -19 -8 -38 -10 -42 -3 -4 -7 -28 -10 -54 -2 -26
-6 -49 -8 -53 -2 -3 -7 -34 -11 -68 -3 -34 -8 -72 -10 -84 -26 -133 -25 -817
0 -951 2 -11 9 -52 15 -91 5 -40 12 -79 13 -87 7 -29 21 -95 22 -100 6 -39 31
-130 35 -130 3 0 6 15 6 33 1 53 14 241 20 273 21 125 28 160 51 239 82 287
244 515 473 667 94 62 164 94 290 131 119 35 144 38 346 39 196 0 218 -3 314
-33 139 -45 239 -104 364 -216 33 -29 62 -53 65 -53 4 0 6 280 6 622 l0 622
33 23 c32 21 101 45 167 58 82 15 117 19 200 18 240 -2 414 -107 510 -308 41
-85 66 -169 80 -261 11 -76 14 -450 14 -1489 0 -1351 0 -1354 -63 -1453 -46
-73 -102 -118 -175 -141 -92 -29 -109 -31 -251 -31 -217 0 -312 28 -388 114
-42 49 -91 152 -105 223 l-11 60 -58 -87 c-84 -128 -194 -222 -337 -288 -31
-15 -58 -27 -61 -27 -3 -1 -25 -7 -49 -14 -115 -33 -297 -45 -406 -27 -22 4
-56 9 -75 12 -84 12 -221 59 -316 109 -57 30 -104 53 -104 51 0 -7 86 -116
137 -175 147 -167 277 -301 393 -401 41 -36 81 -71 89 -79 8 -7 49 -39 90 -70
42 -31 78 -59 81 -62 3 -3 46 -33 95 -66 371 -248 752 -408 1180 -494 82 -17
165 -32 185 -35 19 -2 46 -6 60 -9 26 -5 60 -9 205 -22 170 -15 545 -8 705 12
19 2 55 7 80 10 204 25 565 112 685 164 11 5 61 25 110 44 123 48 263 115 369
176 49 28 91 51 93 51 14 0 303 205 407 288 137 110 412 379 501 492 33 41 63
77 66 80 3 3 33 41 66 85 54 72 102 143 202 300 56 88 188 366 239 505 73 198
138 442 168 630 3 19 7 45 9 56 2 12 6 48 10 80 4 33 9 70 11 84 24 145 23
606 -2 795 -22 171 -48 326 -69 407 -8 35 -17 73 -19 84 -16 85 -105 350 -152
452 -13 29 -24 55 -24 58 0 9 -122 249 -163 319 -22 39 -73 120 -113 180 -164
245 -257 358 -474 576 -377 379 -756 627 -1225 801 -74 27 -283 93 -330 103
-11 2 -63 14 -115 25 -52 12 -111 23 -130 26 -19 2 -60 9 -90 14 -65 11 -133
19 -177 19 -18 1 -33 4 -33 9 0 8 85 9 599 11 189 1 342 4 338 7 -8 9 -2507
10 -2507 2z m2625 -3013 c143 -19 153 -22 251 -54 385 -126 677 -410 798 -776
14 -44 28 -89 30 -100 2 -11 12 -56 21 -100 20 -91 27 -297 14 -371 -5 -27
-18 -70 -30 -96 -25 -53 -65 -77 -144 -83 -87 -7 -511 -15 -1079 -20 -302 -2
-551 -7 -554 -9 -16 -17 72 -168 132 -227 50 -50 164 -104 265 -128 85 -19
267 -23 351 -6 60 12 169 53 224 85 60 34 226 192 226 215 0 18 8 18 93 0 90
-19 208 -79 262 -133 25 -25 60 -74 77 -110 31 -62 33 -73 33 -173 -1 -99 -3
-110 -34 -173 -89 -181 -311 -318 -622 -384 -87 -19 -130 -25 -249 -38 -70 -8
-358 -8 -425 0 -76 9 -218 33 -270 47 -22 5 -45 11 -52 12 -7 2 -16 6 -19 10
-4 4 -15 7 -24 7 -22 0 -149 51 -225 91 -168 89 -327 229 -432 384 -92 137
-162 319 -189 501 -17 110 -25 447 -12 509 4 17 11 55 17 85 19 97 72 242 123
341 179 345 500 587 898 680 99 22 138 26 280 27 91 0 210 -6 265 -13z"/>
<path d="M4570 3328 c-170 -21 -323 -150 -391 -328 -23 -61 -17 -78 29 -86 46
-9 860 -11 874 -3 6 4 7 19 4 35 -4 16 -8 39 -11 52 -21 112 -99 225 -191 276
-87 48 -201 68 -314 54z"/>
<path d="M4775 6990 c-3 -5 -1 -10 4 -10 6 0 11 5 11 10 0 6 -2 10 -4 10 -3 0
-8 -4 -11 -10z"/>
<path d="M4810 6989 c0 -5 9 -9 20 -9 11 0 20 2 20 4 0 2 -9 6 -20 9 -11 3
-20 1 -20 -4z"/>
<path d="M4896 6991 c-3 -4 6 -8 20 -9 13 -1 24 0 24 2 0 7 -40 14 -44 7z"/>
<path d="M4956 6991 c-3 -4 6 -8 20 -9 13 -1 24 0 24 2 0 7 -40 14 -44 7z"/>
<path d="M5018 6983 c7 -3 16 -2 19 1 4 3 -2 6 -13 5 -11 0 -14 -3 -6 -6z"/>
<path d="M5078 6983 c7 -3 16 -2 19 1 4 3 -2 6 -13 5 -11 0 -14 -3 -6 -6z"/>
<path d="M5168 6983 c7 -3 16 -2 19 1 4 3 -2 6 -13 5 -11 0 -14 -3 -6 -6z"/>
<path d="M5228 6983 c7 -3 16 -2 19 1 4 3 -2 6 -13 5 -11 0 -14 -3 -6 -6z"/>
<path d="M1535 3189 c-189 -24 -344 -183 -390 -399 -21 -99 -9 -308 22 -400
35 -102 143 -230 235 -276 153 -78 351 -68 502 25 42 26 129 118 150 159 30
57 38 133 40 376 l3 239 -45 66 c-78 114 -160 173 -277 200 -60 14 -171 18
-240 10z"/>
</g>
</svg>
