<?xml version="1.0" encoding="utf-8"?><svg xmlns="http://www.w3.org/2000/svg" xmlns:xlink="http://www.w3.org/1999/xlink"><symbol viewBox="0 0 430.117 430.117" id="brand--facebook" xmlns="http://www.w3.org/2000/svg"><path d="M158.081 83.3v59.218h-43.385v72.412h43.385v215.183h89.122V214.936h59.805s5.601-34.721 8.316-72.685H247.54V92.74c0-7.4 9.717-17.354 19.321-17.354h48.557V.001h-66.021C155.878-.004 158.081 72.48 158.081 83.3z"/></symbol><symbol viewBox="0 0 512 512" id="brand--instagram" xmlns="http://www.w3.org/2000/svg"><path d="M349.33 69.33a93.62 93.62 0 0193.34 93.34v186.66a93.62 93.62 0 01-93.34 93.34H162.67a93.62 93.62 0 01-93.34-93.34V162.67a93.62 93.62 0 0193.34-93.34h186.66m0-37.33H162.67C90.8 32 32 90.8 32 162.67v186.66C32 421.2 90.8 480 162.67 480h186.66C421.2 480 480 421.2 480 349.33V162.67C480 90.8 421.2 32 349.33 32z"/><path d="M377.33 162.67a28 28 0 1128-28 27.94 27.94 0 01-28 28zM256 181.33A74.67 74.67 0 11181.33 256 74.75 74.75 0 01256 181.33m0-37.33a112 112 0 10112 112 112 112 0 00-112-112z"/></symbol><symbol viewBox="0 0 512 512" id="brand--linkedin" xmlns="http://www.w3.org/2000/svg"><path d="M470.117 301.543V460.56h-92.188V312.193c0-37.271-13.334-62.707-46.703-62.707-25.473 0-40.632 17.142-47.301 33.724-2.432 5.928-3.058 14.179-3.058 22.477V460.56h-92.219s1.242-251.285 0-277.32h92.21v39.309c-.187.294-.43.611-.606.896h.606v-.896c12.251-18.869 34.13-45.824 83.102-45.824 60.673-.001 106.157 39.636 106.157 124.818zM92.183 49.558C60.635 49.558 40 70.251 40 97.463c0 26.619 20.038 47.94 50.959 47.94h.616c32.159 0 52.159-21.317 52.159-47.94-.606-27.212-20-47.905-51.551-47.905zM45.477 460.56h92.184V183.24H45.477v277.32z"/></symbol><symbol viewBox="0 0 36 36" id="brand--plone" xmlns="http://www.w3.org/2000/svg"><g fill-rule="evenodd"><path d="M18.5 30C12.159 30 7 24.841 7 18.5S12.159 7 18.5 7 30 12.159 30 18.5 24.841 30 18.5 30m0-26C10.505 4 4 10.505 4 18.5S10.505 33 18.5 33 33 26.495 33 18.5 26.495 4 18.5 4"/><path d="M16.5 15.5a3 3 0 100-6 3 3 0 000 6m0 6a3 3 0 100 6 3 3 0 000-6m6-6a3 3 0 100 6 3 3 0 000-6"/></g></symbol><symbol viewBox="0 0 512 512" id="brand--twitter" xmlns="http://www.w3.org/2000/svg"><path d="M492 109.5c-17.4 7.7-36 12.9-55.6 15.3 20-12 35.4-31 42.6-53.6-18.7 11.1-39.4 19.2-61.5 23.5C399.8 75.8 374.6 64 346.8 64c-53.5 0-96.8 43.4-96.8 96.9 0 7.6.8 15 2.5 22.1-80.5-4-151.9-42.6-199.6-101.3-8.3 14.3-13.1 31-13.1 48.7 0 33.6 17.2 63.3 43.2 80.7-16-.4-31-4.8-44-12.1v1.2c0 47 33.4 86.1 77.7 95-8.1 2.2-16.7 3.4-25.5 3.4-6.2 0-12.3-.6-18.2-1.8 12.3 38.5 48.1 66.5 90.5 67.3-33.1 26-74.9 41.5-120.3 41.5-7.8 0-15.5-.5-23.1-1.4C62.8 432 113.7 448 168.3 448 346.6 448 444 300.3 444 172.2c0-4.2-.1-8.4-.3-12.5C462.6 146 479 129 492 109.5z"/></symbol><symbol class="aficon--xing" viewBox="0 0 512 512" id="brand--xing" xmlns="http://www.w3.org/2000/svg"><path d="M313.8 303.9L469 32H365L209.4 303.8c-.4.7-.4 1.1 0 1.7l98.9 173.8c.4.7.8.7 1.6.7H413l-99.3-174.7c-.2-.3-.1-1 .1-1.4zm-91.9-87.7L163 113c-.5-.8-1-1-2-1H65l58.9 104.4c.1.2.2.6.1.8L43 352h96.8c.8 0 1.2-.2 1.6-.9l80.5-133.7c.1-.3.1-.9 0-1.2z"/></symbol><symbol class="agicon--alert" viewBox="0 0 512 512" id="content--alert" xmlns="http://www.w3.org/2000/svg"><path d="M256 48C141.1 48 48 141.1 48 256s93.1 208 208 208 208-93.1 208-208S370.9 48 256 48zm17.2 109.6l-3.1 115.1c-.2 8.2-5.9 14.8-14.1 14.8s-13.9-6.6-14.1-14.8l-3.1-115.1c-.2-9.6 7.5-17.6 17.2-17.6 9.6 0 17.4 7.9 17.2 17.6zM256 354c-10.7 0-19.1-8.1-19.1-18.4s8.4-18.4 19.1-18.4c10.7 0 19.1 8.1 19.1 18.4S266.7 354 256 354z"/></symbol><symbol class="ahsvg-inline--fa ahfa-bullhorn ahfa-w-18" viewBox="0 0 576 512" id="content--bullhorn" xmlns="http://www.w3.org/2000/svg"><path fill="currentColor" d="M576 240c0-23.63-12.95-44.04-32-55.12V32.01C544 23.26 537.02 0 512 0c-7.12 0-14.19 2.38-19.98 7.02l-85.03 68.03C364.28 109.19 310.66 128 256 128H64c-35.35 0-64 28.65-64 64v96c0 35.35 28.65 64 64 64h33.7c-1.39 10.48-2.18 21.14-2.18 32 0 39.77 9.26 77.35 25.56 110.94 5.19 10.69 16.52 17.06 28.4 17.06h74.28c26.05 0 41.69-29.84 25.9-50.56-16.4-21.52-26.15-48.36-26.15-77.44 0-11.11 1.62-21.79 4.41-32H256c54.66 0 108.28 18.81 150.98 52.95l85.03 68.03a32.023 32.023 0 0019.98 7.02c24.92 0 32-22.78 32-32V295.13C563.05 284.04 576 263.63 576 240zm-96 141.42l-33.05-26.44C392.95 311.78 325.12 288 256 288v-96c69.12 0 136.95-23.78 190.95-66.98L480 98.58v282.84z"/></symbol><symbol viewBox="0 0 512 512" id="content--calendar" xmlns="http://www.w3.org/2000/svg"><path d="M424 96h-40v24c0 4.4-3.6 8-8 8h-16c-4.4 0-8-3.6-8-8V96H160v24c0 4.4-3.6 8-8 8h-16c-4.4 0-8-3.6-8-8V96H88c-22 0-40 18-40 40v272c0 22 18 40 40 40h336c22 0 40-18 40-40V136c0-22-18-40-40-40zm8 300c0 11-9 20-20 20H100c-11 0-20-9-20-20V216c0-4.4 3.6-8 8-8h336c4.4 0 8 3.6 8 8v180zM160 72c0-4.4-3.6-8-8-8h-16c-4.4 0-8 3.6-8 8v24h32V72zm224 0c0-4.4-3.6-8-8-8h-16c-4.4 0-8 3.6-8 8v24h32V72z"/></symbol><symbol class="ajsvg-inline--fa ajfa-chalkboard-teacher ajfa-w-20" viewBox="0 0 640 512" id="content--chalkboard" xmlns="http://www.w3.org/2000/svg"><path fill="currentColor" d="M208 352c-2.39 0-4.78.35-7.06 1.09C187.98 357.3 174.35 360 160 360c-14.35 0-27.98-2.7-40.95-6.91-2.28-.74-4.66-1.09-7.05-1.09C49.94 352-.33 402.48 0 464.62.14 490.88 21.73 512 48 512h224c26.27 0 47.86-21.12 48-47.38.33-62.14-49.94-112.62-112-112.62zm-48-32c53.02 0 96-42.98 96-96s-42.98-96-96-96-96 42.98-96 96 42.98 96 96 96zM592 0H208c-26.47 0-48 22.25-48 49.59V96c23.42 0 45.1 6.78 64 17.8V64h352v288h-64v-64H384v64h-76.24c19.1 16.69 33.12 38.73 39.69 64H592c26.47 0 48-22.25 48-49.59V49.59C640 22.25 618.47 0 592 0z"/></symbol><symbol viewBox="0 0 512 512" id="content--download" xmlns="http://www.w3.org/2000/svg"><path d="M336 176h40a40 40 0 0140 40v208a40 40 0 01-40 40H136a40 40 0 01-40-40V216a40 40 0 0140-40h40" fill="none" stroke="#000" stroke-linecap="round" stroke-linejoin="round" stroke-width="32"/><path fill="none" stroke="#000" stroke-linecap="round" stroke-linejoin="round" stroke-width="32" d="M176 272l80 80 80-80M256 48v288"/></symbol><symbol viewBox="0 0 36 36" id="content--hero" xmlns="http://www.w3.org/2000/svg"><path d="M27 16H7v-6h22v6h-2zM5 8v10h26V8H5zm0 16h26v-2H5zm0 4h18v-2H5z" fill-rule="evenodd"/></symbol><symbol viewBox="0 0 18 14" id="content--icon-check" xmlns="http://www.w3.org/2000/svg"><path fill="none" stroke="#FFF" stroke-width="2" d="M1 7.644l4.7 4.73L17 1"/></symbol><symbol viewBox="0 0 512 512" id="content--information" xmlns="http://www.w3.org/2000/svg"><path fill="none" stroke="#000" stroke-linecap="round" stroke-linejoin="round" stroke-width="40" d="M196 220h64v172"/><path fill="none" stroke="#000" stroke-linecap="round" stroke-miterlimit="10" stroke-width="40" d="M187 396h138"/><path d="M256 160a32 32 0 1132-32 32 32 0 01-32 32z"/></symbol><symbol viewBox="0 0 512 512" id="content--ribbon" xmlns="http://www.w3.org/2000/svg"><circle cx="256" cy="160" r="128" fill="none" stroke="#000" stroke-linecap="round" stroke-linejoin="round" stroke-width="32"/><path d="M143.65 227.82L48 400l86.86-.42a16 16 0 0113.82 7.8L192 480l88.33-194.32" fill="none" stroke="#000" stroke-linecap="round" stroke-linejoin="round" stroke-width="32"/><path d="M366.54 224L464 400l-86.86-.42a16 16 0 00-13.82 7.8L320 480l-64-140.8" fill="none" stroke="#000" stroke-linecap="round" stroke-linejoin="round" stroke-width="32"/><circle cx="256" cy="160" r="64" fill="none" stroke="#000" stroke-linecap="round" stroke-linejoin="round" stroke-width="32"/></symbol><symbol class="apsvg-inline--fa apfa-school apfa-w-20" viewBox="0 0 640 512" id="content--school-solid" xmlns="http://www.w3.org/2000/svg"><path fill="currentColor" d="M0 224v272c0 8.84 7.16 16 16 16h80V192H32c-17.67 0-32 14.33-32 32zm360-48h-24v-40c0-4.42-3.58-8-8-8h-16c-4.42 0-8 3.58-8 8v64c0 4.42 3.58 8 8 8h48c4.42 0 8-3.58 8-8v-16c0-4.42-3.58-8-8-8zm137.75-63.96l-160-106.67a32.02 32.02 0 00-35.5 0l-160 106.67A32.002 32.002 0 00128 138.66V512h128V368c0-8.84 7.16-16 16-16h96c8.84 0 16 7.16 16 16v144h128V138.67c0-10.7-5.35-20.7-14.25-26.63zM320 256c-44.18 0-80-35.82-80-80s35.82-80 80-80 80 35.82 80 80-35.82 80-80 80zm288-64h-64v320h80c8.84 0 16-7.16 16-16V224c0-17.67-14.33-32-32-32z"/></symbol><symbol viewBox="0 0 512 512" id="content--shield" xmlns="http://www.w3.org/2000/svg"><path fill="none" stroke="#000" stroke-linecap="round" stroke-linejoin="round" stroke-width="32" d="M336 176L225.2 304 176 255.8"/><path d="M463.1 112.37C373.68 96.33 336.71 84.45 256 48c-80.71 36.45-117.68 48.33-207.1 64.37C32.7 369.13 240.58 457.79 256 464c15.42-6.21 223.3-94.87 207.1-351.63z" fill="none" stroke="#000" stroke-linecap="round" stroke-linejoin="round" stroke-width="32"/></symbol><symbol class="arsvg-inline--fa arfa-suitcase arfa-w-16" viewBox="0 0 512 512" id="content--suitcase" xmlns="http://www.w3.org/2000/svg"><path fill="currentColor" d="M128 480h256V80c0-26.5-21.5-48-48-48H176c-26.5 0-48 21.5-48 48v400zm64-384h128v32H192V96zm320 80v256c0 26.5-21.5 48-48 48h-48V128h48c26.5 0 48 21.5 48 48zM96 480H48c-26.5 0-48-21.5-48-48V176c0-26.5 21.5-48 48-48h48v352z"/></symbol><symbol class="assvg-inline--fa asfa-sun asfa-w-16" viewBox="0 0 512 512" id="content--sun" xmlns="http://www.w3.org/2000/svg"><path fill="currentColor" d="M256 160c-52.9 0-96 43.1-96 96s43.1 96 96 96 96-43.1 96-96-43.1-96-96-96zm246.4 80.5l-94.7-47.3 33.5-100.4c4.5-13.6-8.4-26.5-21.9-21.9l-100.4 33.5-47.4-94.8c-6.4-12.8-24.6-12.8-31 0l-47.3 94.7L92.7 70.8c-13.6-4.5-26.5 8.4-21.9 21.9l33.5 100.4-94.7 47.4c-12.8 6.4-12.8 24.6 0 31l94.7 47.3-33.5 100.5c-4.5 13.6 8.4 26.5 21.9 21.9l100.4-33.5 47.3 94.7c6.4 12.8 24.6 12.8 31 0l47.3-94.7 100.4 33.5c13.6 4.5 26.5-8.4 21.9-21.9l-33.5-100.4 94.7-47.3c13-6.5 13-24.7.2-31.1zm-155.9 106c-49.9 49.9-131.1 49.9-181 0-49.9-49.9-49.9-131.1 0-181 49.9-49.9 131.1-49.9 181 0 49.9 49.9 49.9 131.1 0 181z"/></symbol><symbol viewBox="0 0 512 512" id="content--time" xmlns="http://www.w3.org/2000/svg"><path d="M256 64C150 64 64 150 64 256s86 192 192 192 192-86 192-192S362 64 256 64z" fill="none" stroke="#000" stroke-miterlimit="10" stroke-width="32"/><path fill="none" stroke="#000" stroke-linecap="round" stroke-linejoin="round" stroke-width="32" d="M256 128v144h96"/></symbol><symbol viewBox="0 0 512 512" id="content--video" xmlns="http://www.w3.org/2000/svg"><path d="M374.79 308.78L457.5 367a16 16 0 0022.5-14.62V159.62A16 16 0 00457.5 145l-82.71 58.22A16 16 0 00368 216.3v79.4a16 16 0 006.79 13.08z" fill="none" stroke="#000" stroke-linecap="round" stroke-linejoin="round" stroke-width="32"/><path d="M268 384H84a52.15 52.15 0 01-52-52V180a52.15 52.15 0 0152-52h184.48A51.68 51.68 0 01320 179.52V332a52.15 52.15 0 01-52 52z" fill="none" stroke="#000" stroke-miterlimit="10" stroke-width="32"/></symbol><symbol class="avicon--add" viewBox="0 0 512 512" id="ui--add" xmlns="http://www.w3.org/2000/svg"><path d="M368.5 240H272v-96.5c0-8.8-7.2-16-16-16s-16 7.2-16 16V240h-96.5c-8.8 0-16 7.2-16 16 0 4.4 1.8 8.4 4.7 11.3 2.9 2.9 6.9 4.7 11.3 4.7H240v96.5c0 4.4 1.8 8.4 4.7 11.3 2.9 2.9 6.9 4.7 11.3 4.7 8.8 0 16-7.2 16-16V272h96.5c8.8 0 16-7.2 16-16s-7.2-16-16-16z"/></symbol><symbol class="awicon--alert" viewBox="0 0 512 512" id="ui--alert" xmlns="http://www.w3.org/2000/svg"><path d="M256 48C141.1 48 48 141.1 48 256s93.1 208 208 208 208-93.1 208-208S370.9 48 256 48zm17.2 109.6l-3.1 115.1c-.2 8.2-5.9 14.8-14.1 14.8s-13.9-6.6-14.1-14.8l-3.1-115.1c-.2-9.6 7.5-17.6 17.2-17.6 9.6 0 17.4 7.9 17.2 17.6zM256 354c-10.7 0-19.1-8.1-19.1-18.4s8.4-18.4 19.1-18.4c10.7 0 19.1 8.1 19.1 18.4S266.7 354 256 354z"/></symbol><symbol viewBox="0 0 512 512" id="ui--calendar" xmlns="http://www.w3.org/2000/svg"><path d="M424 96h-40v24c0 4.4-3.6 8-8 8h-16c-4.4 0-8-3.6-8-8V96H160v24c0 4.4-3.6 8-8 8h-16c-4.4 0-8-3.6-8-8V96H88c-22 0-40 18-40 40v272c0 22 18 40 40 40h336c22 0 40-18 40-40V136c0-22-18-40-40-40zm8 300c0 11-9 20-20 20H100c-11 0-20-9-20-20V216c0-4.4 3.6-8 8-8h336c4.4 0 8 3.6 8 8v180zM160 72c0-4.4-3.6-8-8-8h-16c-4.4 0-8 3.6-8 8v24h32V72zm224 0c0-4.4-3.6-8-8-8h-16c-4.4 0-8 3.6-8 8v24h32V72z"/></symbol><symbol class="aysvg-inline--fa ayfa-certificate ayfa-w-16" viewBox="0 0 512 512" id="ui--certificate-solid" xmlns="http://www.w3.org/2000/svg"><path fill="currentColor" d="M458.622 255.92l45.985-45.005c13.708-12.977 7.316-36.039-10.664-40.339l-62.65-15.99 17.661-62.015c4.991-17.838-11.829-34.663-29.661-29.671l-61.994 17.667-15.984-62.671C337.085.197 313.765-6.276 300.99 7.228L256 53.57 211.011 7.229c-12.63-13.351-36.047-7.234-40.325 10.668l-15.984 62.671-61.995-17.667C74.87 57.907 58.056 74.738 63.046 92.572l17.661 62.015-62.65 15.99C.069 174.878-6.31 197.944 7.392 210.915l45.985 45.005-45.985 45.004c-13.708 12.977-7.316 36.039 10.664 40.339l62.65 15.99-17.661 62.015c-4.991 17.838 11.829 34.663 29.661 29.671l61.994-17.667 15.984 62.671c4.439 18.575 27.696 24.018 40.325 10.668L256 458.61l44.989 46.001c12.5 13.488 35.987 7.486 40.325-10.668l15.984-62.671 61.994 17.667c17.836 4.994 34.651-11.837 29.661-29.671l-17.661-62.015 62.65-15.99c17.987-4.302 24.366-27.367 10.664-40.339l-45.984-45.004z"/></symbol><symbol viewBox="0 0 512 512" id="ui--check" xmlns="http://www.w3.org/2000/svg"><path d="M362.6 192.9L345 174.8c-.7-.8-1.8-1.2-2.8-1.2-1.1 0-2.1.4-2.8 1.2l-122 122.9-44.4-44.4c-.8-.8-1.8-1.2-2.8-1.2-1 0-2 .4-2.8 1.2l-17.8 17.8c-1.6 1.6-1.6 4.1 0 5.7l56 56c3.6 3.6 8 5.7 11.7 5.7 5.3 0 9.9-3.9 11.6-5.5h.1l133.7-134.4c1.4-1.7 1.4-4.2-.1-5.7z"/><path d="M256 76c48.1 0 93.3 18.7 127.3 52.7S436 207.9 436 256s-18.7 93.3-52.7 127.3S304.1 436 256 436c-48.1 0-93.3-18.7-127.3-52.7S76 304.1 76 256s18.7-93.3 52.7-127.3S207.9 76 256 76m0-28C141.1 48 48 141.1 48 256s93.1 208 208 208 208-93.1 208-208S370.9 48 256 48z"/></symbol><symbol class="baicon--chevron" viewBox="0 0 36 36" id="ui--chevron" xmlns="http://www.w3.org/2000/svg"><path fill-rule="evenodd" d="M14.707 26.707l-1.414-1.414L20.586 18l-7.293-7.293 1.414-1.414L23.414 18z"/></symbol><symbol class="bbicon--chevron-left" viewBox="0 0 512 512" id="ui--chevron-left" xmlns="http://www.w3.org/2000/svg"><path d="M217.9 256L345 129c9.4-9.4 9.4-24.6 0-33.9-9.4-9.4-24.6-9.3-34 0L167 239c-9.1 9.1-9.3 23.7-.7 33.1L310.9 417c4.7 4.7 10.9 7 17 7s12.3-2.3 17-7c9.4-9.4 9.4-24.6 0-33.9L217.9 256z"/></symbol><symbol class="bcapp-nav__toggle-icon" viewBox="0 0 36 36" id="ui--close" xmlns="http://www.w3.org/2000/svg"><path fill-rule="evenodd" d="M27.899 9.515l-1.414-1.414L18 16.586 9.514 8.101 8.1 9.515 16.586 18 8.1 26.486 9.514 27.9 18 19.414l8.485 8.486 1.414-1.414L19.414 18z"/></symbol><symbol class="bdsvg-inline--fa bdfa-comment bdfa-w-16" viewBox="0 0 512 512" id="ui--comment-regular" xmlns="http://www.w3.org/2000/svg"><path fill="currentColor" d="M256 32C114.6 32 0 125.1 0 240c0 47.6 19.9 91.2 52.9 126.3C38 405.7 7 439.1 6.5 439.5c-6.6 7-8.4 17.2-4.6 26S14.4 480 24 480c61.5 0 110-25.7 139.1-46.3C192 442.8 223.2 448 256 448c141.4 0 256-93.1 256-208S397.4 32 256 32zm0 368c-26.7 0-53.1-4.1-78.4-12.1l-22.7-7.2-19.5 13.8c-14.3 10.1-33.9 21.4-57.5 29 7.3-12.1 14.4-25.7 19.9-40.2l10.6-28.1-20.6-21.8C69.7 314.1 48 282.2 48 240c0-88.2 93.3-160 208-160s208 71.8 208 160-93.3 160-208 160z"/></symbol><symbol viewBox="0 0 36 36" id="ui--dots" xmlns="http://www.w3.org/2000/svg"><path d="M8 16c-1.103 0-2 .897-2 2s.897 2 2 2 2-.897 2-2-.897-2-2-2m0 6c-2.206 0-4-1.794-4-4s1.794-4 4-4 4 1.794 4 4-1.794 4-4 4m10-6c-1.103 0-2 .897-2 2s.897 2 2 2 2-.897 2-2-.897-2-2-2m0 6c-2.206 0-4-1.794-4-4s1.794-4 4-4 4 1.794 4 4-1.794 4-4 4m10-6c-1.103 0-2 .897-2 2s.897 2 2 2 2-.897 2-2-.897-2-2-2m0 6c-2.206 0-4-1.794-4-4s1.794-4 4-4 4 1.794 4 4-1.794 4-4 4M8 26c-1.103 0-2 .897-2 2s.897 2 2 2 2-.897 2-2-.897-2-2-2m0 6c-2.206 0-4-1.794-4-4s1.794-4 4-4 4 1.794 4 4-1.794 4-4 4m10-6c-1.103 0-2 .897-2 2s.897 2 2 2 2-.897 2-2-.897-2-2-2m0 6c-2.206 0-4-1.794-4-4s1.794-4 4-4 4 1.794 4 4-1.794 4-4 4m10-6c-1.103 0-2 .897-2 2s.897 2 2 2 2-.897 2-2-.897-2-2-2m0 6c-2.206 0-4-1.794-4-4s1.794-4 4-4 4 1.794 4 4-1.794 4-4 4M8 6c-1.103 0-2 .897-2 2s.897 2 2 2 2-.897 2-2-.897-2-2-2m0 6c-2.206 0-4-1.794-4-4s1.794-4 4-4 4 1.794 4 4-1.794 4-4 4m10-6c-1.103 0-2 .897-2 2s.897 2 2 2 2-.897 2-2-.897-2-2-2m0 6c-2.206 0-4-1.794-4-4s1.794-4 4-4 4 1.794 4 4-1.794 4-4 4m10-6c-1.103 0-2 .897-2 2s.897 2 2 2 2-.897 2-2-.897-2-2-2m0 6c-2.206 0-4-1.794-4-4s1.794-4 4-4 4 1.794 4 4-1.794 4-4 4" fill-rule="evenodd"/></symbol><symbol class="bfsvg-inline--fa bffa-envelope bffa-w-16" viewBox="0 0 512 512" id="ui--envelope-regular" xmlns="http://www.w3.org/2000/svg"><path fill="currentColor" d="M464 64H48C21.49 64 0 85.49 0 112v288c0 26.51 21.49 48 48 48h416c26.51 0 48-21.49 48-48V112c0-26.51-21.49-48-48-48zm0 48v40.805c-22.422 18.259-58.168 46.651-134.587 106.49-16.841 13.247-50.201 45.072-73.413 44.701-23.208.375-56.579-31.459-73.413-44.701C106.18 199.465 70.425 171.067 48 152.805V112h416zM48 400V214.398c22.914 18.251 55.409 43.862 104.938 82.646 21.857 17.205 60.134 55.186 103.062 54.955 42.717.231 80.509-37.199 103.053-54.947 49.528-38.783 82.032-64.401 104.947-82.653V400H48z"/></symbol><symbol class="bgsvg-inline--fa bgfa-facebook-f bgfa-w-10" viewBox="0 0 320 512" id="ui--facebook-f-brands" xmlns="http://www.w3.org/2000/svg"><path fill="currentColor" d="M279.14 288l14.22-92.66h-88.91v-60.13c0-25.35 12.42-50.06 52.24-50.06h40.42V6.26S260.43 0 225.36 0c-73.22 0-121.08 44.38-121.08 124.72v70.62H22.89V288h81.39v224h100.17V288z"/></symbol><symbol class="bhicon--globe" viewBox="0 0 512 512" id="ui--globe" xmlns="http://www.w3.org/2000/svg"><path d="M256 48h-.7c-55.4.2-107.4 21.9-146.6 61.1C69.6 148.4 48 200.5 48 256s21.6 107.6 60.8 146.9c39.1 39.2 91.2 60.9 146.6 61.1h.7c114.7 0 208-93.3 208-208S370.7 48 256 48zm180.2 194h-77.6c-.9-26.7-4.2-52.2-9.8-76.2 17.1-5.5 33.7-12.5 49.7-21 22 28.2 35 61.6 37.7 97.2zM242 242h-61.8c.8-24.5 3.8-47.7 8.8-69.1 17.4 3.9 35.1 6.3 53 7.1v62zm0 28v61.9c-17.8.8-35.6 3.2-53 7.1-5-21.4-8-44.6-8.8-69H242zm28 0h61.3c-.8 24.4-3.8 47.6-8.8 68.9-17.2-3.9-34.8-6.2-52.5-7V270zm0-28v-62c17.8-.8 35.4-3.2 52.5-7 5 21.4 8 44.5 8.8 69H270zm109.4-117.9c-12.3 6.1-25 11.3-38 15.5-7.1-21.4-16.1-39.9-26.5-54.5 24 8.3 45.9 21.6 64.5 39zM315 146.8c-14.7 3.2-29.8 5.2-45 6V79.4c17 9.2 33.6 33.9 45 67.4zM242 79v73.7c-15.4-.8-30.6-2.8-45.5-6.1 11.6-33.8 28.4-58.5 45.5-67.6zm-45.6 6.4c-10.3 14.5-19.2 32.9-26.3 54.1-12.8-4.2-25.4-9.4-37.5-15.4 18.4-17.3 40.1-30.5 63.8-38.7zm-82.9 59.5c15.8 8.4 32.3 15.4 49.2 20.8-5.7 23.9-9 49.5-9.8 76.2h-77c2.6-35.4 15.6-68.8 37.6-97zM75.8 270h77c.9 26.7 4.2 52.3 9.8 76.2-16.9 5.5-33.4 12.5-49.2 20.8-21.9-28.1-34.9-61.5-37.6-97zm56.7 117.9c12.1-6 24.7-11.2 37.6-15.4 7.1 21.3 16 39.6 26.3 54.2-23.7-8.4-45.4-21.5-63.9-38.8zm64-22.6c14.9-3.3 30.2-5.3 45.5-6.1V433c-17.2-9.1-33.9-33.9-45.5-67.7zm73.5 67.3v-73.5c15.2.8 30.3 2.8 45 6-11.4 33.6-28 58.3-45 67.5zm45-5.7c10.4-14.6 19.4-33.1 26.5-54.5 13 4.2 25.8 9.5 38 15.6-18.6 17.3-40.6 30.6-64.5 38.9zm83.5-59.8c-16-8.5-32.6-15.5-49.7-21 5.6-23.9 8.9-49.4 9.8-76.1h77.6c-2.7 35.5-15.6 68.9-37.7 97.1z"/></symbol><symbol class="bisvg-inline--fa bifa-globe-europe bifa-w-16" viewBox="0 0 496 512" id="ui--globe-europe-solid" xmlns="http://www.w3.org/2000/svg"><path fill="currentColor" d="M248 8C111 8 0 119 0 256s111 248 248 248 248-111 248-248S385 8 248 8zm200 248c0 22.5-3.9 44.2-10.8 64.4h-20.3c-4.3 0-8.4-1.7-11.4-4.8l-32-32.6c-4.5-4.6-4.5-12.1.1-16.7l12.5-12.5v-8.7c0-3-1.2-5.9-3.3-8l-9.4-9.4c-2.1-2.1-5-3.3-8-3.3h-16c-6.2 0-11.3-5.1-11.3-11.3 0-3 1.2-5.9 3.3-8l9.4-9.4c2.1-2.1 5-3.3 8-3.3h32c6.2 0 11.3-5.1 11.3-11.3v-9.4c0-6.2-5.1-11.3-11.3-11.3h-36.7c-8.8 0-16 7.2-16 16v4.5c0 6.9-4.4 13-10.9 15.2l-31.6 10.5c-3.3 1.1-5.5 4.1-5.5 7.6v2.2c0 4.4-3.6 8-8 8h-16c-4.4 0-8-3.6-8-8s-3.6-8-8-8H247c-3 0-5.8 1.7-7.2 4.4l-9.4 18.7c-2.7 5.4-8.2 8.8-14.3 8.8H194c-8.8 0-16-7.2-16-16V199c0-4.2 1.7-8.3 4.7-11.3l20.1-20.1c4.6-4.6 7.2-10.9 7.2-17.5 0-3.4 2.2-6.5 5.5-7.6l40-13.3c1.7-.6 3.2-1.5 4.4-2.7l26.8-26.8c2.1-2.1 3.3-5 3.3-8 0-6.2-5.1-11.3-11.3-11.3H258l-16 16v8c0 4.4-3.6 8-8 8h-16c-4.4 0-8-3.6-8-8v-20c0-2.5 1.2-4.9 3.2-6.4l28.9-21.7c1.9-.1 3.8-.3 5.7-.3C358.3 56 448 145.7 448 256zM130.1 149.1c0-3 1.2-5.9 3.3-8l25.4-25.4c2.1-2.1 5-3.3 8-3.3 6.2 0 11.3 5.1 11.3 11.3v16c0 3-1.2 5.9-3.3 8l-9.4 9.4c-2.1 2.1-5 3.3-8 3.3h-16c-6.2 0-11.3-5.1-11.3-11.3zm128 306.4v-7.1c0-8.8-7.2-16-16-16h-20.2c-10.8 0-26.7-5.3-35.4-11.8l-22.2-16.7c-11.5-8.6-18.2-22.1-18.2-36.4v-23.9c0-16 8.4-30.8 22.1-39l42.9-25.7c7.1-4.2 15.2-6.5 23.4-6.5h31.2c10.9 0 21.4 3.9 29.6 10.9l43.2 37.1h18.3c8.5 0 16.6 3.4 22.6 9.4l17.3 17.3c3.4 3.4 8.1 5.3 12.9 5.3H423c-32.4 58.9-93.8 99.5-164.9 103.1z"/></symbol><symbol class="bjicon--information" viewBox="0 0 512 512" id="ui--information" xmlns="http://www.w3.org/2000/svg"><path d="M235.4 176c0-11.4 9.3-19.9 20.5-19.9 11.4 0 20.7 8.5 20.7 19.9s-9.3 20-20.7 20c-11.2.1-20.5-8.6-20.5-20zm1.4 35.8H275v144.1h-38.2V211.8z"/></symbol><symbol class="bksvg-inline--fa bkfa-instagram bkfa-w-14" viewBox="0 0 448 512" id="ui--instagram-brands" xmlns="http://www.w3.org/2000/svg"><path fill="currentColor" d="M224.1 141c-63.6 0-114.9 51.3-114.9 114.9s51.3 114.9 114.9 114.9S339 319.5 339 255.9 287.7 141 224.1 141zm0 189.6c-41.1 0-74.7-33.5-74.7-74.7s33.5-74.7 74.7-74.7 74.7 33.5 74.7 74.7-33.6 74.7-74.7 74.7zm146.4-194.3c0 14.9-12 26.8-26.8 26.8-14.9 0-26.8-12-26.8-26.8s12-26.8 26.8-26.8 26.8 12 26.8 26.8zm76.1 27.2c-1.7-35.9-9.9-67.7-36.2-93.9-26.2-26.2-58-34.4-93.9-36.2-37-2.1-147.9-2.1-184.9 0-35.8 1.7-67.6 9.9-93.9 36.1s-34.4 58-36.2 93.9c-2.1 37-2.1 147.9 0 184.9 1.7 35.9 9.9 67.7 36.2 93.9s58 34.4 93.9 36.2c37 2.1 147.9 2.1 184.9 0 35.9-1.7 67.7-9.9 93.9-36.2 26.2-26.2 34.4-58 36.2-93.9 2.1-37 2.1-147.8 0-184.8zM398.8 388c-7.8 19.6-22.9 34.7-42.6 42.6-29.5 11.7-99.5 9-132.1 9s-102.7 2.6-132.1-9c-19.6-7.8-34.7-22.9-42.6-42.6-11.7-29.5-9-99.5-9-132.1s-2.6-102.7 9-132.1c7.8-19.6 22.9-34.7 42.6-42.6 29.5-11.7 99.5-9 132.1-9s102.7-2.6 132.1 9c19.6 7.8 34.7 22.9 42.6 42.6 11.7 29.5 9 99.5 9 132.1s2.7 102.7-9 132.1z"/></symbol><symbol viewBox="0 0 512 512" id="ui--language" xmlns="http://www.w3.org/2000/svg"><path fill="none" stroke="#000" stroke-linecap="round" stroke-linejoin="round" stroke-width="32" d="M48 112h288M192 64v48m80 336l96-224 96 224m-162.5-64h133M281.3 112S257 206 199 277 80 384 80 384"/><path d="M256 336s-35-27-72-75-56-85-56-85" fill="none" stroke="#000" stroke-linecap="round" stroke-linejoin="round" stroke-width="32"/></symbol><symbol class="bmicon--minus" id="ui--minus" viewBox="0 0 64 64" xmlns="http://www.w3.org/2000/svg"><style/><path fill="none" stroke="currentColor" stroke-miterlimit="10" stroke-width="2" d="M14.157 32h35.686"/></symbol><symbol class="bnicon--more-horizontal" viewBox="0 0 512 512" id="ui--more-horizontal" xmlns="http://www.w3.org/2000/svg"><path d="M255.8 218c-21 0-38 17-38 38s17 38 38 38 38-17 38-38-17-38-38-38zM102 218c-21 0-38 17-38 38s17 38 38 38 38-17 38-38-17-38-38-38zm308 0c-21 0-38 17-38 38s17 38 38 38 38-17 38-38-17-38-38-38z"/></symbol><symbol class="boicon--more" viewBox="0 0 512 512" id="ui--more-vertical" xmlns="http://www.w3.org/2000/svg"><path d="M296 136c0-22.002-17.998-40-40-40s-40 17.998-40 40 17.998 40 40 40 40-17.998 40-40zm0 240c0-22.002-17.998-40-40-40s-40 17.998-40 40 17.998 40 40 40 40-17.998 40-40zm0-120c0-22.002-17.998-40-40-40s-40 17.998-40 40 17.998 40 40 40 40-17.998 40-40z"/></symbol><symbol viewBox="0 0 36 36" id="ui--pen" xmlns="http://www.w3.org/2000/svg"><path fill-rule="evenodd" d="M11.934 27H9v-2.723l10.931-10.879 2.855 2.776L11.934 27zm14.45-20.001l2.828 2.828-4.985 4.986-2.829-2.829 4.986-4.985zm2.551 5.933l1.691-1.691c.78-.78.78-2.048 0-2.828l-2.829-2.829c-.755-.755-2.125-.756-2.88 0L7 23.449v4.031l-1.76 1.813 1.441 1.361L8.31 29h4.453l14.76-14.706 1.48 1.507-4.588 4.6 1.414 1.421 4.587-4.584c.377-.377.585-.877.585-1.412 0-.536-.208-1.037-.585-1.414l-1.48-1.48z"/></symbol><symbol class="bqicon--people" viewBox="0 0 512 512" id="ui--people" xmlns="http://www.w3.org/2000/svg"><path d="M349.1 334.7c-11.2-4-29.5-4.2-37.6-7.3-5.6-2.2-14.5-4.6-17.4-8.1-2.9-3.5-2.9-28.5-2.9-28.5s7-6.6 9.9-14c2.9-7.3 4.8-27.5 4.8-27.5s6.6 2.8 9.2-10.4c2.2-11.4 6.4-17.4 5.3-25.8-1.2-8.4-5.8-6.4-5.8-6.4s5.8-8.5 5.8-37.4c0-29.8-22.5-59.1-64.6-59.1-42 0-64.7 29.4-64.7 59.1 0 28.9 5.7 37.4 5.7 37.4s-4.7-2-5.8 6.4c-1.2 8.4 3 14.4 5.3 25.8 2.6 13.3 9.2 10.4 9.2 10.4s1.9 20.1 4.8 27.5c2.9 7.4 9.9 14 9.9 14s0 25-2.9 28.5-11.8 5.9-17.4 8c-8 3.1-26.3 3.5-37.6 7.5-11.2 4-45.8 22.2-45.8 67.2h278.3c.1-45.1-34.5-63.3-45.7-67.3z"/><path d="M140 286s23.9-.8 33.4-9.3c-15.5-23.5-7.1-50.9-10.3-76.5-3.2-25.5-17.7-40.8-46.7-40.8h-.4c-28 0-43.1 15.2-46.3 40.8-3.2 25.5 5.7 56-10.2 76.5C69 285.3 93 285 93 285s1 14.4-1 16.8c-2 2.4-7.9 4.7-12 5.5-8.8 1.9-18.1 4.5-25.9 7.2-7.8 2.7-22.6 17.2-22.6 37.2h80.3c2.2-8 17.3-22.3 32-29.8 9-4.6 17.9-4.3 24.7-5.2 0 0 3.8-6-8.7-8.3 0 0-17.2-4.3-19.2-6.7-1.9-2.2-.6-15.7-.6-15.7zm232 0s-23.9-.8-33.4-9.3c15.5-23.5 7.1-50.9 10.3-76.5 3.2-25.5 17.7-40.8 46.7-40.8h.4c28 0 43.1 15.2 46.3 40.8 3.2 25.5-5.7 56 10.2 76.5-9.5 8.6-33.5 8.3-33.5 8.3s-1 14.4 1 16.8c2 2.4 7.9 4.7 12 5.5 8.8 1.9 18.1 4.5 25.9 7.2 7.8 2.7 22.6 17.2 22.6 37.2h-80.3c-2.2-8-17.3-22.3-32-29.8-9-4.6-17.9-4.3-24.7-5.2 0 0-3.8-6 8.7-8.3 0 0 17.2-4.3 19.2-6.7 1.9-2.2.6-15.7.6-15.7z"/></symbol><symbol class="brsvg-inline--fa brfa-phone-alt brfa-w-16" viewBox="0 0 512 512" id="ui--phone-alt-solid" xmlns="http://www.w3.org/2000/svg"><path fill="currentColor" d="M497.39 361.8l-112-48a24 24 0 00-28 6.9l-49.6 60.6A370.66 370.66 0 01130.6 204.11l60.6-49.6a23.94 23.94 0 006.9-28l-48-112A24.16 24.16 0 00122.6.61l-104 24A24 24 0 000 48c0 256.5 207.9 464 464 464a24 24 0 0023.4-18.6l24-104a24.29 24.29 0 00-14.01-27.6z"/></symbol><symbol class="bsicon--plus" viewBox="0 0 64 64" id="ui--plus" xmlns="http://www.w3.org/2000/svg"><path d="M14.157 32h35.686M32 14.157v35.686" fill="currentColor" stroke="currentColor" stroke-width="2" stroke-miterlimit="10"/></symbol><symbol class="bticon--print" viewBox="0 0 512 512" id="ui--print" xmlns="http://www.w3.org/2000/svg"><path d="M128 248v200c0 8.8 7.2 16 16 16h224c8.8 0 16-7.2 16-16V248c0-8.8-7.2-16-16-16H144c-8.8 0-16 7.2-16 16zM384 48H128c-8.8 0-16 7.2-16 16v20c0 2.2 1.8 4 4 4h280c2.2 0 4-1.8 4-4V64c0-8.8-7.2-16-16-16z"/><path d="M432.5 112h-352C62.9 112 48 125.8 48 143.3v174.4c0 17.5 14.9 32.3 32.5 32.3H96c4.4 0 8-3.6 8-8V236c0-15.5 12.5-28 28-28h248c15.5 0 28 12.5 28 28v106c0 4.4 3.6 8 8 8h16.5c17.6 0 31.5-14.8 31.5-32.3V143.3c0-17.5-13.9-31.3-31.5-31.3z"/></symbol><symbol class="busvg-inline--fa bufa-quote-left bufa-w-16" viewBox="0 0 512 512" id="ui--quote-left-solid" xmlns="http://www.w3.org/2000/svg"><path fill="currentColor" d="M464 256h-80v-64c0-35.3 28.7-64 64-64h8c13.3 0 24-10.7 24-24V56c0-13.3-10.7-24-24-24h-8c-88.4 0-160 71.6-160 160v240c0 26.5 21.5 48 48 48h128c26.5 0 48-21.5 48-48V304c0-26.5-21.5-48-48-48zm-288 0H96v-64c0-35.3 28.7-64 64-64h8c13.3 0 24-10.7 24-24V56c0-13.3-10.7-24-24-24h-8C71.6 32 0 103.6 0 192v240c0 26.5 21.5 48 48 48h128c26.5 0 48-21.5 48-48V304c0-26.5-21.5-48-48-48z"/></symbol><symbol class="bvicon--remove" viewBox="0 0 512 512" id="ui--remove" xmlns="http://www.w3.org/2000/svg"><path d="M368.5 240h-225c-8.8 0-16 7.2-16 16 0 4.4 1.8 8.4 4.7 11.3 2.9 2.9 6.9 4.7 11.3 4.7h225c8.8 0 16-7.2 16-16s-7.2-16-16-16z"/></symbol><symbol class="bwicon--reorder" viewBox="0 0 512 512" id="ui--reorder" xmlns="http://www.w3.org/2000/svg"><path d="M80 304h352v16H80zm0-56h352v16H80zm0-56h352v16H80z"/></symbol><symbol class="bxsvg-inline--fa bxfa-shield-alt bxfa-w-16" viewBox="0 0 512 512" id="ui--shield-alt-solid" xmlns="http://www.w3.org/2000/svg"><path fill="currentColor" d="M466.5 83.7l-192-80a48.15 48.15 0 00-36.9 0l-192 80C27.7 91.1 16 108.6 16 128c0 198.5 114.5 335.7 221.5 380.3 11.8 4.9 25.1 4.9 36.9 0C360.1 472.6 496 349.3 496 128c0-19.4-11.7-36.9-29.5-44.3zM256.1 446.3l-.1-381 175.9 73.3c-3.3 151.4-82.1 261.1-175.8 307.7z"/></symbol><symbol viewBox="0 0 512 512" id="ui--timer" xmlns="http://www.w3.org/2000/svg"><path d="M256 456c-110.3 0-200-89.7-200-200 0-54.8 21.7-105.9 61.2-144 6.4-6.2 16.6-6 22.7.4 6.2 6.4 6 16.6-.4 22.7-33.1 32-51.3 74.9-51.3 120.9 0 92.5 75.3 167.8 167.8 167.8S423.8 348.5 423.8 256c0-87.1-66.7-159-151.8-167.1v62.6c0 8.9-7.2 16.1-16.1 16.1s-16.1-7.2-16.1-16.1V72.1c0-8.9 7.2-16.1 16.1-16.1 110.3 0 200 89.7 200 200S366.3 456 256 456z"/><path d="M175.9 161.9l99.5 71.5c13.5 9.7 16.7 28.5 7 42s-28.5 16.7-42 7c-2.8-2-5.2-4.4-7-7l-71.5-99.5c-3.2-4.5-2.2-10.8 2.3-14 3.6-2.6 8.3-2.4 11.7 0z"/></symbol><symbol class="bzicon--trash" viewBox="0 0 512 512" id="ui--trash" xmlns="http://www.w3.org/2000/svg"><path d="M133.1 128l23.6 290.7c0 16.2 13.1 29.3 29.3 29.3h141c16.2 0 29.3-13.1 29.3-29.3L379.6 128H133.1zm61.6 265L188 160h18.5l6.9 233h-18.7zm70.3 0h-18V160h18v233zm52.3 0h-18.6l6.8-233H324l-6.7 233zM364 92h-36l-26.3-23c-3.7-3.2-8.4-5-13.2-5h-64.8c-4.9 0-9.7 1.8-13.4 5L184 92h-36c-17.6 0-30 8.4-30 26h276c0-17.6-12.4-26-30-26z"/></symbol><symbol class="casvg-inline--fa cafa-twitter cafa-w-16" viewBox="0 0 512 512" id="ui--twitter-brands" xmlns="http://www.w3.org/2000/svg"><path fill="currentColor" d="M459.37 151.716c.325 4.548.325 9.097.325 13.645 0 138.72-105.583 298.558-298.558 298.558-59.452 0-114.68-17.219-161.137-47.106 8.447.974 16.568 1.299 25.34 1.299 49.055 0 94.213-16.568 130.274-44.832-46.132-.975-84.792-31.188-98.112-72.772 6.498.974 12.995 1.624 19.818 1.624 9.421 0 18.843-1.3 27.614-3.573-48.081-9.747-84.143-51.98-84.143-102.985v-1.299c13.969 7.797 30.214 12.67 47.431 13.319-28.264-18.843-46.781-51.005-46.781-87.391 0-19.492 5.197-37.36 14.294-52.954 51.655 63.675 129.3 105.258 216.365 109.807-1.624-7.797-2.599-15.918-2.599-24.04 0-57.828 46.782-104.934 104.934-104.934 30.213 0 57.502 12.67 76.67 33.137 23.715-4.548 46.456-13.32 66.599-25.34-7.798 24.366-24.366 44.833-46.132 57.827 21.117-2.273 41.584-8.122 60.426-16.243-14.292 20.791-32.161 39.308-52.628 54.253z"/></symbol><symbol class="cbsvg-inline--fa cbfa-user-shield cbfa-w-20" viewBox="0 0 640 512" id="ui--user-shield-solid" xmlns="http://www.w3.org/2000/svg"><path fill="currentColor" d="M622.3 271.1l-115.2-45c-4.1-1.6-12.6-3.7-22.2 0l-115.2 45c-10.7 4.2-17.7 14-17.7 24.9 0 111.6 68.7 188.8 132.9 213.9 9.6 3.7 18 1.6 22.2 0C558.4 489.9 640 420.5 640 296c0-10.9-7-20.7-17.7-24.9zM496 462.4V273.3l95.5 37.3c-5.6 87.1-60.9 135.4-95.5 151.8zM224 256c70.7 0 128-57.3 128-128S294.7 0 224 0 96 57.3 96 128s57.3 128 128 128zm96 40c0-2.5.8-4.8 1.1-7.2-2.5-.1-4.9-.8-7.5-.8h-16.7c-22.2 10.2-46.9 16-72.9 16s-50.6-5.8-72.9-16h-16.7C60.2 288 0 348.2 0 422.4V464c0 26.5 21.5 48 48 48h352c6.8 0 13.3-1.5 19.2-4-54-42.9-99.2-116.7-99.2-212z"/></symbol><symbol viewBox="0 0 36 36" id="ui--warning" xmlns="http://www.w3.org/2000/svg"><g fill-rule="evenodd"><path d="M6.714 29h22.572L18 9.032 6.714 29zm26 2H3.286L18 4.968 32.714 31z"/><path d="M19.5 26a1.5 1.5 0 11-3.001-.001A1.5 1.5 0 0119.5 26zM17 23h2v-9h-2z"/></g></symbol><symbol viewBox="0 0 36 36" id="widget--adk-collage" xmlns="http://www.w3.org/2000/svg"><g fill-rule="evenodd"><path d="M7 23h16v-2H7v2zm0-4h16V7H7v12zm-2 6h20V5H5v20z"/><path d="M13.021 11.979l2.822 4.702 2.067-2.324 2.273 3.221 1.634-1.156-3.727-5.279-1.933 2.176-3.178-5.298-4.847 8.482 1.736.994z"/><path d="M27 9v2h2v18H11v-2H9v4h22V9z"/></g></symbol><symbol viewBox="0 0 36 36" id="widget--adk-page-hero" xmlns="http://www.w3.org/2000/svg"><path d="M27 16H7v-6h22v6h-2zM5 8v10h26V8H5zm0 16h26v-2H5zm0 4h18v-2H5z" fill-rule="evenodd"/></symbol><symbol viewBox="0 0 36 36" id="widget--adk-page-section" xmlns="http://www.w3.org/2000/svg"><g fill-rule="evenodd"><path d="M7 29h22V7H7v22zm-2 2h26V5H5v26z"/><path d="M21 17h4v-6h-4v6zm-2 2h8V9h-8v10zM9 11h8V9H9zm0 4h8v-2H9zm0 4h8v-2H9zm0 4h18v-2H9zm0 4h14v-2H9z"/></g></symbol><symbol class="cgbi cgbi-type-h2" viewBox="0 0 20 20" fill="currentColor" id="widget--adk-page-section-header" xmlns="http://www.w3.org/2000/svg"><path d="M9.638 15V5.669H8.38V9.62H3.759V5.67H2.5V15h1.258v-4.273h4.62V15h1.259zm3.022-6.733v-.048c0-.889.63-1.668 1.716-1.668.957 0 1.675.608 1.675 1.572 0 .855-.554 1.504-1.067 2.085l-3.513 3.999V15H17.5v-1.094h-4.245v-.075l2.481-2.844c.875-.998 1.586-1.784 1.586-2.953 0-1.463-1.155-2.556-2.919-2.556-1.941 0-2.966 1.326-2.966 2.74v.049h1.223z"/></symbol><symbol viewBox="0 0 36 36" id="widget--adk-teaser-links" xmlns="http://www.w3.org/2000/svg"><path d="M13 10h16V8H13zm0 4h20v-2H13zM3 16h8V8H3v8zm2-1.999h4.001V10H5v4.001zM13 22h16v-2H13zm0 4h20v-2H13zM3 28h8v-8H3v8zm2-2h4.001v-4H5v4z" fill-rule="evenodd"/></symbol><symbol viewBox="0 0 512 512" id="widget--card" xmlns="http://www.w3.org/2000/svg"><path d="M388 32H124c-33.1 0-60 26.9-60 60v328c0 33.1 26.9 60 60 60h264c33.1 0 60-26.9 60-60V92c0-33.1-26.9-60-60-60zm32 388c0 17.6-14.4 32-32 32H124c-17.6 0-32-14.4-32-32V92c0-17.6 14.4-32 32-32h264c17.6 0 32 14.4 32 32v328z"/><path d="M360 176H152c-13.2 0-24 10.8-24 24v192c0 13.2 10.8 24 24 24h208c13.2 0 24-10.8 24-24V200c0-13.2-10.8-24-24-24zm-218-52h100c7.7 0 14-6.3 14-14s-6.3-14-14-14H142c-7.7 0-14 6.3-14 14s6.3 14 14 14z"/></symbol><symbol viewBox="0 0 36 36" id="widget--hero" xmlns="http://www.w3.org/2000/svg"><path d="M27 16H7v-6h22v6h-2zM5 8v10h26V8H5zm0 16h26v-2H5zm0 4h18v-2H5z" fill-rule="evenodd"/></symbol><symbol viewBox="0 0 36 36" id="widget--horizontal-line" xmlns="http://www.w3.org/2000/svg"><path fill-rule="evenodd" d="M20 9c0-1.103-.897-2-2-2s-2 .897-2 2 .897 2 2 2 2-.897 2-2zm-6 0c0-2.206 1.794-4 4-4s4 1.794 4 4-1.794 4-4 4-4-1.794-4-4zm0 18c0-2.206 1.794-4 4-4s4 1.794 4 4-1.794 4-4 4-4-1.794-4-4zm6 0c0-1.103-.897-2-2-2s-2 .897-2 2 .897 2 2 2 2-.897 2-2zM7 17h22v2H7v-2z"/></symbol><symbol class="clicon-image" viewBox="0 0 512 512" id="widget--image" xmlns="http://www.w3.org/2000/svg"><path d="M112.6 312.3h190.7c4.5 0 7.1-5.1 4.5-8.8l-95.4-153.4c-2.2-3.2-6.9-3.2-9.1 0L108 303.5c-2.6 3.7.1 8.8 4.6 8.8zm194.1-58l35 55.7c1 1.5 2.7 2.4 4.5 2.4h53.2c4.5 0 7.1-5.1 4.5-8.8l-61.6-87.7c-2.2-3.2-6.9-3.2-9.1 0L306.6 248c-1.2 1.8-1.2 4.3.1 6.3zm44.4-86.4c13.1-1.3 23.7-11.9 25-25 1.8-17.7-13-32.5-30.7-30.7-13.1 1.3-23.7 11.9-25 25-1.7 17.7 13 32.5 30.7 30.7z"/><path d="M432 48H80c-17.7 0-32 14.3-32 32v352c0 17.7 14.3 32 32 32h352c17.7 0 32-14.3 32-32V80c0-17.7-14.3-32-32-32zm-2.7 280c0 4.4-3.6 8-8 8H90.7c-4.4 0-8-3.6-8-8V90.7c0-4.4 3.6-8 8-8h330.7c4.4 0 8 3.6 8 8V328z"/></symbol><symbol viewBox="0 0 36 36" id="widget--image-cover" xmlns="http://www.w3.org/2000/svg"><g fill-rule="evenodd"><path fill-rule="nonzero" d="M3 13l2-2v14l-2-2h30l-2 2V11l2 2H3zm30-2v14H3V11h30z"/><path d="M7 31h22v-2H7z"/></g></symbol><symbol viewBox="0 0 36 36" id="widget--image-poster" xmlns="http://www.w3.org/2000/svg"><g fill-rule="evenodd"><path fill-rule="nonzero" d="M3 13l2-2v14l-2-2h30l-2 2V11l2 2H3zm30-2v14H3V11h30z"/><path d="M7 31h22v-2H7zM7 7h22V5H7z"/></g></symbol><symbol viewBox="0 0 36 36" id="widget--listing" xmlns="http://www.w3.org/2000/svg"><path d="M13 10h16V8H13zm0 4h20v-2H13zM3 16h8V8H3v8zm2-1.999h4.001V10H5v4.001zM13 22h16v-2H13zm0 4h20v-2H13zM3 28h8v-8H3v8zm2-2h4.001v-4H5v4z" fill-rule="evenodd"/></symbol><symbol viewBox="0 0 36 36" id="widget--listing-cards" xmlns="http://www.w3.org/2000/svg"><path d="M6 27h4v-6H6v6zm-2 2h8V19H4v10zm12-2h4v-6h-4v6zm-2 2h8V19h-8v10zm12-2h4v-6h-4v6zm-2 2h8V19h-8v10zM6 15h4V9H6v6zm-2 2h8V7H4v10zm12-2h4V9h-4v6zm-2 2h8V7h-8v10zm12-2h4V9h-4v6zm-2 2h8V7h-8v10z" fill-rule="evenodd"/></symbol><symbol class="cqbi cqbi-type-h1" viewBox="0 0 20 20" fill="currentColor" id="widget--page-header" xmlns="http://www.w3.org/2000/svg"><path d="M10.637 15V5.669H9.379V9.62H4.758V5.67H3.5V15h1.258v-4.273h4.62V15h1.259zm5.329 0V5.669h-1.244L12.5 7.316v1.265l2.16-1.565h.062V15h1.244z"/></symbol><symbol class="crbi crbi-type-h2" viewBox="0 0 20 20" fill="currentColor" id="widget--section-header" xmlns="http://www.w3.org/2000/svg"><path d="M9.638 15V5.669H8.38V9.62H3.759V5.67H2.5V15h1.258v-4.273h4.62V15h1.259zm3.022-6.733v-.048c0-.889.63-1.668 1.716-1.668.957 0 1.675.608 1.675 1.572 0 .855-.554 1.504-1.067 2.085l-3.513 3.999V15H17.5v-1.094h-4.245v-.075l2.481-2.844c.875-.998 1.586-1.784 1.586-2.953 0-1.463-1.155-2.556-2.919-2.556-1.941 0-2.966 1.326-2.966 2.74v.049h1.223z"/></symbol><symbol viewBox="0 0 24 24" id="widget--separator" xmlns="http://www.w3.org/2000/svg"><path fill="none" d="M0 0h24v24H0z"/><path d="M2 11h2v2H2v-2zm4 0h12v2H6v-2zm14 0h2v2h-2v-2z"/></symbol><symbol viewBox="0 0 36 36" id="widget--slider" xmlns="http://www.w3.org/2000/svg"><path d="M27 16H7v-6h22v6h-2zM5 8v10h26V8H5zm0 16h26v-2H5zm0 4h18v-2H5z" fill-rule="evenodd"/></symbol><symbol class="cubi cubi-document-text" viewBox="0 0 20 20" fill="currentColor" id="widget--text-block" xmlns="http://www.w3.org/2000/svg"><path fill-rule="evenodd" d="M6 3h8a2 2 0 012 2v10a2 2 0 01-2 2H6a2 2 0 01-2-2V5a2 2 0 012-2zm0 1a1 1 0 00-1 1v10a1 1 0 001 1h8a1 1 0 001-1V5a1 1 0 00-1-1H6z" clip-rule="evenodd"/><path fill-rule="evenodd" d="M6.5 14a.5.5 0 01.5-.5h3a.5.5 0 010 1H7a.5.5 0 01-.5-.5zm0-2a.5.5 0 01.5-.5h6a.5.5 0 010 1H7a.5.5 0 01-.5-.5zm0-2a.5.5 0 01.5-.5h6a.5.5 0 010 1H7a.5.5 0 01-.5-.5zm0-2a.5.5 0 01.5-.5h6a.5.5 0 010 1H7a.5.5 0 01-.5-.5zm0-2a.5.5 0 01.5-.5h6a.5.5 0 010 1H7a.5.5 0 01-.5-.5z" clip-rule="evenodd"/></symbol><symbol class="cvbi cvbi-document-richtext" viewBox="0 0 20 20" fill="currentColor" id="widget--text-formatted" xmlns="http://www.w3.org/2000/svg"><path fill-rule="evenodd" d="M6 3h8a2 2 0 012 2v10a2 2 0 01-2 2H6a2 2 0 01-2-2V5a2 2 0 012-2zm0 1a1 1 0 00-1 1v10a1 1 0 001 1h8a1 1 0 001-1V5a1 1 0 00-1-1H6z" clip-rule="evenodd"/><path fill-rule="evenodd" d="M6.5 14a.5.5 0 01.5-.5h3a.5.5 0 010 1H7a.5.5 0 01-.5-.5zm0-2a.5.5 0 01.5-.5h6a.5.5 0 010 1H7a.5.5 0 01-.5-.5zm1.639-3.958l1.33.886 1.854-1.855a.25.25 0 01.289-.047L13.5 8v1.75a.5.5 0 01-.5.5H7a.5.5 0 01-.5-.5v-.5s1.54-1.274 1.639-1.208zM8.25 7a.75.75 0 100-1.5.75.75 0 000 1.5z" clip-rule="evenodd"/></symbol><symbol viewBox="0 0 512 512" id="widget--text-html" xmlns="http://www.w3.org/2000/svg"><path d="M332 142.7c-1.2-1.1-2.7-1.7-4.1-1.7s-3 .6-4.1 1.7L310 155.9c-1.2 1.1-1.9 2.7-1.9 4.3 0 1.6.7 3.2 1.9 4.3l95.8 91.5-95.8 91.5c-1.2 1.1-1.9 2.7-1.9 4.3 0 1.6.7 3.2 1.9 4.3l13.8 13.2c1.2 1.1 2.6 1.7 4.1 1.7 1.5 0 3-.6 4.1-1.7l114.2-109c1.2-1.1 1.9-2.7 1.9-4.3 0-1.6-.7-3.2-1.9-4.3L332 142.7zm-128 17.5c0-1.6-.7-3.2-1.9-4.3l-13.8-13.2c-1.2-1.1-2.7-1.7-4.1-1.7s-3 .6-4.1 1.7l-114.2 109c-1.2 1.1-1.9 2.7-1.9 4.3 0 1.6.7 3.2 1.9 4.3l114.2 109c1.2 1.1 2.7 1.7 4.1 1.7 1.5 0 3-.6 4.1-1.7l13.8-13.2c1.2-1.1 1.9-2.7 1.9-4.3 0-1.6-.7-3.2-1.9-4.3L106.3 256l95.8-91.5c1.2-1.1 1.9-2.7 1.9-4.3z"/></symbol><symbol class="cxo-icon--svg" viewBox="0 0 64 64" id="widget--tile" xmlns="http://www.w3.org/2000/svg"><path d="M13 13h16.215v16.858H13zm21.785 0H51v16.858H34.785zM13 34.142h16.215V51H13zm21.785 0H51V51H34.785z" fill="none" stroke="currentColor" stroke-width="2" stroke-miterlimit="10"/></symbol></svg>