<?xml version="1.0" standalone="no"?>
<!DOCTYPE svg PUBLIC "-//W3C//DTD SVG 20010904//EN"
 "http://www.w3.org/TR/2001/REC-SVG-20010904/DTD/svg10.dtd">
<svg version="1.0" xmlns="http://www.w3.org/2000/svg"
 width="135.000000pt" height="80.000000pt" viewBox="0 0 135.000000 80.000000"
 preserveAspectRatio="xMidYMid meet">

<g transform="translate(0.000000,80.000000) scale(0.100000,-0.100000)"
fill="#000000" stroke="none">
<path d="M1290 776 c0 -18 -47 -103 -77 -140 -35 -42 -19 -45 23 -5 l37 34 -7
-30 c-8 -35 -36 -94 -53 -113 -7 -7 -13 -18 -13 -23 0 -12 -47 -12 -55 1 -4 6
5 10 19 10 14 0 26 3 26 6 0 19 -69 88 -116 116 -43 26 -53 37 -48 52 4 12 2
16 -5 12 -6 -4 -11 -14 -11 -22 0 -8 -6 -15 -12 -15 -7 -1 -20 -3 -28 -4 -8
-1 -22 -3 -31 -4 -21 -1 -33 -41 -13 -41 8 0 14 -4 14 -10 0 -22 -29 -8 -65
31 -21 23 -40 37 -44 31 -3 -5 -17 -15 -30 -22 -19 -10 -25 -10 -32 1 -7 12
-9 12 -9 0 0 -8 -17 -29 -38 -47 -21 -18 -49 -53 -63 -78 -13 -25 -30 -46 -36
-46 -7 0 -13 -4 -13 -10 0 -6 22 -8 58 -4 108 11 104 12 116 -23 17 -48 25
-50 15 -2 -5 23 -7 44 -4 47 2 3 1 10 -4 16 -4 6 -11 30 -15 53 -6 41 -5 44
31 67 35 22 40 22 56 8 10 -9 15 -23 11 -34 -3 -10 0 -18 6 -18 23 0 4 -33
-30 -52 l-35 -20 33 7 c38 8 40 -1 13 -59 -32 -69 -32 -85 -3 -122 17 -22 36
-34 52 -34 l25 -1 -28 -15 c-29 -15 -63 -12 -53 5 3 5 0 14 -8 20 -8 7 -17 23
-21 38 -3 14 -8 23 -11 21 -2 -3 2 -24 10 -46 11 -32 12 -42 3 -43 -7 0 -3 -4
7 -8 16 -6 11 -10 -28 -23 -64 -21 -91 -9 -144 65 -39 53 -43 63 -38 101 l5
41 -10 -35 c-22 -71 17 -204 82 -283 31 -38 67 -51 55 -21 -3 9 -3 21 1 27 4
7 6 26 4 43 -3 34 0 36 65 49 31 6 33 4 69 -61 41 -72 38 -83 -20 -85 -16 0
-41 -5 -55 -10 -17 -6 0 -7 52 -4 75 5 77 4 102 -26 31 -36 34 -29 6 11 -14
20 -17 31 -9 35 7 5 2 12 -13 19 -12 6 -38 39 -56 73 l-32 61 66 31 c77 36 84
37 84 13 0 -10 5 -23 11 -29 13 -13 22 -123 10 -123 -4 0 -16 -7 -27 -16 -18
-15 -18 -15 3 -5 30 15 43 14 43 -4 0 -10 8 -7 26 10 15 14 30 25 34 25 4 0
15 15 25 33 9 17 24 45 32 61 12 23 13 30 2 36 -10 7 -9 17 4 52 19 50 21 80
7 94 -6 6 5 33 35 79 25 39 47 84 50 100 3 17 9 50 14 75 l8 45 8 -50 c4 -27
14 -61 21 -75 l13 -25 -4 30 c-2 17 -9 62 -14 100 -6 39 -10 76 -11 83 0 17
-20 15 -20 -2z m-530 -225 c0 -16 3 -36 6 -44 6 -17 -42 -37 -89 -37 l-30 0
21 23 c12 13 22 29 22 35 0 7 6 12 13 12 7 0 18 9 25 20 18 29 32 25 32 -9z
m307 13 c-3 -3 -12 -4 -19 -1 -8 3 -5 6 6 6 11 1 17 -2 13 -5z m-33 -38 c30
-1 51 -6 54 -13 2 -9 -7 -13 -26 -13 -17 0 -32 -6 -35 -12 -3 -10 -12 -7 -32
8 -30 21 -50 54 -24 38 7 -4 36 -8 63 -8z m-89 -6 c3 -5 -1 -10 -10 -10 -9 0
-13 5 -10 10 3 6 8 10 10 10 2 0 7 -4 10 -10z"/>
<path d="M25 333 c89 -84 259 -149 415 -159 52 -3 113 -2 135 3 34 8 17 11
-110 20 -169 13 -243 34 -373 104 -42 23 -72 38 -67 32z"/>
</g>
</svg>
