<?xml version="1.0" standalone="no"?>
<!DOCTYPE svg PUBLIC "-//W3C//DTD SVG 20010904//EN"
 "http://www.w3.org/TR/2001/REC-SVG-20010904/DTD/svg10.dtd">
<svg version="1.0" xmlns="http://www.w3.org/2000/svg"
 width="135.000000pt" height="135.000000pt" viewBox="0 0 135.000000 135.000000"
 preserveAspectRatio="xMidYMid meet">
<metadata>
Created by potrace 1.11, written by Peter Selinger 2001-2013
</metadata>
<g transform="translate(0.000000,135.000000) scale(0.100000,-0.100000)"
fill="#000000" stroke="none">
<path d="M1289 1073 c-1 -5 -1 -15 0 -24 1 -9 -5 -22 -14 -29 -8 -7 -15 -19
-15 -26 0 -8 -5 -14 -11 -14 -5 0 -8 -4 -5 -9 3 -4 -6 -21 -19 -37 -14 -16
-25 -31 -26 -34 0 -3 -2 -13 -4 -24 -3 -13 6 -8 31 18 19 20 36 36 39 36 11 0
-10 -57 -37 -102 -30 -48 -55 -65 -71 -49 -6 6 -3 9 8 8 10 -1 20 3 22 10 7
19 -82 108 -127 128 -33 15 -39 22 -35 39 6 19 5 19 -13 -3 -11 -14 -31 -24
-48 -25 -16 -1 -34 -5 -41 -9 -15 -10 -9 -43 8 -39 11 3 11 1 2 -9 -10 -10
-19 -7 -43 18 -29 29 -30 32 -13 43 15 10 14 10 -9 6 -15 -4 -30 -2 -33 4 -3
5 -11 10 -17 10 -7 0 -7 -4 0 -13 9 -10 4 -16 -18 -24 -25 -9 -30 -9 -30 3 0
8 -5 14 -11 14 -6 0 -9 -6 -6 -12 2 -7 -20 -40 -50 -73 -29 -32 -56 -69 -59
-82 -4 -14 -14 -23 -24 -23 -11 0 -22 -5 -25 -10 -4 -6 -1 -9 6 -8 9 2 13 -21
13 -87 2 -104 27 -173 91 -244 37 -41 61 -46 50 -11 -3 10 -1 21 4 24 5 4 7
22 4 40 -5 34 -5 34 43 45 37 8 51 7 57 -2 4 -7 23 -38 41 -69 l34 -57 -31 -6
c-18 -2 -50 -7 -71 -10 -72 -10 -52 -18 31 -12 82 5 83 5 107 -24 34 -41 44
-36 12 5 -17 23 -22 37 -15 42 7 4 2 11 -11 18 -21 10 -80 106 -80 128 0 5 25
20 56 34 67 30 78 32 79 19 0 -5 9 -24 18 -42 10 -19 13 -34 7 -38 -6 -4 -6
-15 0 -31 13 -34 14 -31 -22 -50 -20 -11 -28 -19 -20 -22 8 -2 19 1 25 7 16
16 40 14 34 -4 -4 -8 -2 -17 3 -20 6 -4 10 0 10 8 0 7 12 20 26 27 24 14 72
70 59 70 -4 0 3 12 14 27 16 19 20 35 16 57 -4 18 0 46 8 65 11 25 12 42 4 66
-9 29 -6 38 30 91 44 65 60 108 62 169 3 55 8 55 16 -2 8 -57 26 -104 37 -97
5 3 5 10 1 17 -4 6 -7 20 -9 31 -2 26 -13 104 -19 131 -2 11 -4 28 -4 38 -1
16 -20 25 -22 10z m-420 -177 c6 -7 9 -21 5 -30 -3 -9 -1 -16 5 -16 25 0 9
-31 -24 -47 -19 -9 -35 -21 -35 -25 0 -5 9 -4 21 3 37 20 45 -4 16 -53 -33
-56 -30 -98 8 -138 16 -17 35 -28 42 -26 7 3 13 3 13 0 0 -12 -54 -24 -64 -14
-7 7 -6 10 5 10 10 1 9 3 -4 11 -9 6 -24 25 -32 42 l-15 32 6 -30 c4 -16 7
-39 8 -50 1 -11 5 -23 9 -26 9 -6 -48 -32 -68 -32 -33 1 -60 22 -100 76 -40
54 -44 65 -39 96 8 47 13 51 65 57 24 2 53 5 63 7 15 1 22 -7 29 -35 12 -52
26 -48 17 4 -5 24 -6 47 -3 52 3 4 1 11 -4 15 -13 8 -23 74 -14 89 6 11 60 42
72 42 4 0 12 -6 18 -14z m-111 -73 c2 -20 5 -40 8 -45 3 -4 -2 -9 -10 -9 -18
-2 -35 -5 -38 -9 -2 -1 -18 -4 -37 -7 l-34 -4 24 28 c54 63 73 83 79 83 3 0 7
-16 8 -37z m270 -27 c7 -4 12 -3 12 2 0 12 34 9 38 -3 2 -6 -16 -14 -39 -18
-35 -7 -45 -6 -62 11 -19 20 -19 20 10 18 16 -2 35 -6 41 -10z"/>
<path d="M788 543 c7 -3 16 -2 19 1 4 3 -2 6 -13 5 -11 0 -14 -3 -6 -6z"/>
<path d="M10 625 c0 -2 28 -24 63 -48 55 -39 161 -89 221 -104 85 -21 264 -29
301 -13 23 10 23 10 -75 15 -217 11 -294 32 -467 129 -24 14 -43 23 -43 21z"/>
</g>
</svg>
